# xmcd
#
# Track frame offsets: 
#        150
#        16474
#        37086
#        52714
#        67724
#        87112
#        105541
#        121168
#        136996
#
# Disc length: 2163 seconds
#
# Revision: 0
# Processed by: cddbd v1.5.2PL0 Copyright (c) Steve Scherf et al.
# Submitted via: ExactAudioCopy v0.99pb4
#
DISCID=66087109
DTITLE=Sarah Dash - Close Enough
DYEAR=1981
DGENRE=R&B
TTITLE0=Only You Can Fill The Need
TTITLE1=Close Enough
TTITLE2=Leaving Again
TTITLE3=P.S. I Love You
TTITLE4=Paradise
TTITLE5=Somebody's Angel
TTITLE6=City Boy
TTITLE7=My Friend
TTITLE8=Bless You
EXTD=
EXTT0=
EXTT1=
EXTT2=
EXTT3=
EXTT4=
EXTT5=
EXTT6=
EXTT7=
EXTT8=
PLAYORDER=
